<svg width="256" height="256" viewBox="0 0 256 256" fill="none" xmlns="http://www.w3.org/2000/svg">
<path d="M239.172 64.5193L233.622 54.8259C233.189 54.0671 232.586 53.4186 231.861 52.9307C231.135 52.4429 230.307 52.1288 229.441 52.0129C228.575 51.8969 227.694 51.9824 226.866 52.2624C226.038 52.5425 225.286 53.0097 224.668 53.6277L211.992 66.303C211.059 67.2369 210.478 68.4653 210.348 69.7793C210.219 71.0932 210.548 72.4116 211.281 73.51C215.912 80.5822 219.621 88.2174 222.316 96.23V96.23C227.352 111.201 228.754 127.156 226.407 142.776C224.059 158.396 218.03 173.234 208.816 186.064C199.602 198.894 187.469 209.348 173.417 216.563C159.366 223.778 143.8 227.547 128.004 227.559C111.732 227.605 95.7004 223.625 81.3388 215.974L102.825 194.497C113.586 198.571 125.176 199.972 136.598 198.579C148.02 197.187 158.933 193.043 168.401 186.504C177.869 179.964 185.608 171.224 190.954 161.035C196.299 150.845 199.092 139.51 199.092 128.004C199.087 125.545 198.952 123.088 198.686 120.644C197.844 112.437 195.576 104.441 191.984 97.0137C191.583 96.207 190.996 95.5069 190.272 94.9707C189.548 94.4345 188.707 94.0776 187.818 93.929C186.93 93.7805 186.019 93.8446 185.16 94.1161C184.3 94.3877 183.518 94.8589 182.876 95.4912L170.012 108.356C169.327 109.039 168.827 109.886 168.561 110.816C168.294 111.746 168.27 112.729 168.489 113.671L169.57 118.292C171.471 126.377 170.97 134.84 168.129 142.644C165.288 150.447 160.23 157.252 153.577 162.222C146.923 167.192 138.963 170.111 130.674 170.621C122.385 171.131 114.127 169.209 106.915 165.093L101.257 161.849C100.174 161.225 98.9159 160.975 97.6766 161.138C96.4373 161.301 95.2862 161.867 94.4015 162.75L41.9167 215.172C41.3441 215.744 40.9004 216.432 40.6152 217.189C40.3299 217.947 40.2097 218.757 40.2626 219.564C40.3154 220.372 40.5402 221.159 40.9218 221.873C41.3034 222.587 41.833 223.211 42.4752 223.703L50.2047 229.631C72.4936 246.81 99.8635 256.086 128.004 256C198.578 256 256 198.578 256 128.004C256.006 105.739 250.206 83.8576 239.172 64.5193Z" fill="url(#paint0_linear_41_407)"/>
<path d="M205.795 26.3691C183.509 9.19184 156.143 -0.084602 128.005 0.000581465C57.4216 0.000581465 1.94568e-06 57.4221 1.94568e-06 128.005C-0.00387837 150.27 5.79626 172.151 16.8283 191.49L22.3777 201.183C22.8106 201.951 23.4161 202.607 24.1463 203.101C24.8765 203.594 25.7115 203.911 26.5852 204.027C27.4589 204.142 28.3475 204.053 29.1808 203.765C30.014 203.478 30.7691 203.001 31.3864 202.372L44.0527 189.706C44.986 188.772 45.567 187.544 45.6968 186.23C45.8265 184.916 45.497 183.598 44.7644 182.499C40.1364 175.425 36.4281 167.79 33.7287 159.779V159.779C28.6922 144.81 27.2885 128.858 29.6332 113.239C31.9779 97.6207 38.0039 82.7839 47.2137 69.9535C56.4235 57.1232 68.5529 46.6674 82.6006 39.4494C96.6483 32.2314 112.211 28.4581 128.005 28.4411C144.274 28.3963 160.302 32.3762 174.661 40.0263L153.148 61.5121C142.387 57.4358 130.798 56.033 119.375 57.4242C107.952 58.8155 97.0383 62.9593 87.5705 69.4994C78.1027 76.0396 70.3643 84.7806 65.0203 94.9715C59.6762 105.162 56.8862 116.498 56.8901 128.005C56.8901 129.186 57.2054 134.573 57.3045 135.501C58.174 143.656 60.4413 151.601 64.007 158.986C64.4025 159.806 64.9881 160.518 65.7151 161.065C66.4421 161.611 67.2893 161.976 68.1859 162.129C69.0826 162.281 70.0028 162.217 70.8696 161.942C71.7364 161.666 72.5248 161.187 73.1689 160.545L86.0333 147.689C86.7213 147.001 87.2216 146.148 87.4866 145.211C87.7515 144.274 87.7722 143.285 87.5468 142.338L86.4838 137.753C85.7367 134.557 85.3559 131.287 85.3487 128.005C85.3486 120.539 87.3094 113.204 91.0351 106.733C94.7607 100.263 100.12 94.8847 106.578 91.1365C113.035 87.3883 120.364 85.4019 127.83 85.3759C135.296 85.35 142.638 87.2855 149.121 90.9886L154.788 94.2318C155.87 94.854 157.126 95.103 158.364 94.9401C159.601 94.7773 160.75 94.2118 161.635 93.3309L214.083 40.8821C214.656 40.3092 215.1 39.6206 215.385 38.8624C215.671 38.1042 215.791 37.2939 215.738 36.4855C215.685 35.6772 215.46 34.8894 215.079 34.1748C214.697 33.4602 214.167 32.8354 213.525 32.3419L205.795 26.3691Z" fill="url(#paint1_linear_41_407)"/>
<defs>
<linearGradient id="paint0_linear_41_407" x1="82.8613" y1="264.152" x2="263.054" y2="83.9599" gradientUnits="userSpaceOnUse">
<stop stop-color="#B090F5"/>
<stop offset="1" stop-color="#5FBFFF"/>
</linearGradient>
<linearGradient id="paint1_linear_41_407" x1="1.94568e-06" y1="102.024" x2="215.75" y2="102.024" gradientUnits="userSpaceOnUse">
<stop stop-color="#68D7FA"/>
<stop offset="1" stop-color="#7EF1B3"/>
</linearGradient>
</defs>
</svg>
