<svg width="390" height="78" viewBox="0 0 390 78" fill="none" xmlns="http://www.w3.org/2000/svg" role="img" aria-labelledby="title desc">
  <title id="title">monopolyfun wordmark</title>
  <desc id="desc">Lowercase monopolyfun wordmark drawn as fixed vector outlines with a restrained colorful gradient.</desc>
  <defs>
    <linearGradient id="mf-text-gradient" x1="8" y1="18" x2="378" y2="58" gradientUnits="userSpaceOnUse">
      <stop offset="0" stop-color="#ffdf68"/>
      <stop offset="0.18" stop-color="#ffb45b"/>
      <stop offset="0.36" stop-color="#ff6d9e"/>
      <stop offset="0.56" stop-color="#b16cff"/>
      <stop offset="0.76" stop-color="#49cfff"/>
      <stop offset="1" stop-color="#dff8ff"/>
    </linearGradient>
    <linearGradient id="mf-edge-gradient" x1="4" y1="62" x2="378" y2="18" gradientUnits="userSpaceOnUse">
      <stop offset="0" stop-color="#e89a08"/>
      <stop offset="0.36" stop-color="#f0448a"/>
      <stop offset="0.68" stop-color="#765cff"/>
      <stop offset="1" stop-color="#0fbce8"/>
    </linearGradient>
    <filter id="mf-soft-shadow" x="-4%" y="-28%" width="108%" height="156%" color-interpolation-filters="sRGB">
      <feDropShadow dx="0" dy="1.4" stdDeviation="1.15" flood-color="#0f172a" flood-opacity="0.14"/>
      <feDropShadow dx="0" dy="0" stdDeviation="1.6" flood-color="#8bdcff" flood-opacity="0.18"/>
    </filter>
        <g>
    <g id="mf-glyph-0-0">
    <path d="M 20.371094 -21.601562 C 19.714844 -23.042969 18.429688 -23.761719 16.515625 -23.761719 C 14.292969 -23.761719 12.796875 -23.042969 12.03125 -21.601562 C 11.613281 -20.78125 11.402344 -19.558594 11.402344 -17.9375 L 11.402344 0 L 3.5 0 L 3.5 -29.75 L 11.074219 -29.75 L 11.074219 -25.402344 C 12.039062 -26.953125 12.953125 -28.054688 13.808594 -28.710938 C 15.320312 -29.878906 17.28125 -30.460938 19.6875 -30.460938 C 21.964844 -30.460938 23.808594 -29.960938 25.210938 -28.957031 C 26.339844 -28.027344 27.199219 -26.832031 27.78125 -25.375 C 28.800781 -27.125 30.070312 -28.410156 31.582031 -29.230469 C 33.1875 -30.050781 34.972656 -30.460938 36.941406 -30.460938 C 38.253906 -30.460938 39.546875 -30.207031 40.824219 -29.695312 C 42.101562 -29.183594 43.257812 -28.292969 44.296875 -27.015625 C 45.136719 -25.976562 45.699219 -24.699219 45.992188 -23.1875 C 46.175781 -22.183594 46.265625 -20.71875 46.265625 -18.785156 L 46.210938 0 L 38.226562 0 L 38.226562 -18.976562 C 38.226562 -20.105469 38.042969 -21.035156 37.679688 -21.765625 C 36.988281 -23.152344 35.710938 -23.84375 33.851562 -23.84375 C 31.699219 -23.84375 30.214844 -22.949219 29.394531 -21.164062 C 28.976562 -20.214844 28.765625 -19.078125 28.765625 -17.746094 L 28.765625 0 L 20.917969 0 L 20.917969 -17.746094 C 20.917969 -19.515625 20.734375 -20.800781 20.371094 -21.601562 Z M 20.371094 -21.601562 "/>
    </g>
    <g id="mf-glyph-0-1">
    <path d="M 28.492188 -26.03125 C 31.007812 -22.878906 32.265625 -19.148438 32.265625 -14.847656 C 32.265625 -10.472656 31.007812 -6.730469 28.492188 -3.625 C 25.976562 -0.515625 22.15625 1.039062 17.035156 1.039062 C 11.914062 1.039062 8.09375 -0.515625 5.578125 -3.625 C 3.0625 -6.730469 1.804688 -10.472656 1.804688 -14.847656 C 1.804688 -19.148438 3.0625 -22.878906 5.578125 -26.03125 C 8.09375 -29.183594 11.914062 -30.761719 17.035156 -30.761719 C 22.15625 -30.761719 25.976562 -29.183594 28.492188 -26.03125 Z M 17.007812 -24.171875 C 14.730469 -24.171875 12.976562 -23.367188 11.742188 -21.75 C 10.511719 -20.136719 9.898438 -17.835938 9.898438 -14.847656 C 9.898438 -11.859375 10.515625 -9.550781 11.742188 -7.929688 C 12.972656 -6.308594 14.730469 -5.496094 17.007812 -5.496094 C 19.285156 -5.496094 21.035156 -6.308594 22.257812 -7.929688 C 23.480469 -9.550781 24.089844 -11.859375 24.089844 -14.847656 C 24.089844 -17.835938 23.480469 -20.140625 22.257812 -21.75 C 21.035156 -23.363281 19.285156 -24.171875 17.007812 -24.171875 Z M 17.007812 -24.171875 "/>
    </g>
    <g id="mf-glyph-0-2">
    <path d="M 17.664062 -24.035156 C 15.019531 -24.035156 13.207031 -22.914062 12.222656 -20.671875 C 11.710938 -19.488281 11.457031 -17.972656 11.457031 -16.132812 L 11.457031 0 L 3.691406 0 L 3.691406 -29.75 L 11.210938 -29.75 L 11.210938 -25.402344 C 12.214844 -26.933594 13.160156 -28.035156 14.054688 -28.710938 C 15.660156 -29.914062 17.691406 -30.515625 20.152344 -30.515625 C 23.234375 -30.515625 25.753906 -29.710938 27.710938 -28.09375 C 29.671875 -26.480469 30.652344 -23.808594 30.652344 -20.070312 L 30.652344 0 L 22.667969 0 L 22.667969 -18.128906 C 22.667969 -19.695312 22.457031 -20.898438 22.039062 -21.738281 C 21.273438 -23.269531 19.816406 -24.035156 17.664062 -24.035156 Z M 17.664062 -24.035156 "/>
    </g>
    <g id="mf-glyph-0-3">
    <path d="M 28.601562 -26.605469 C 31.007812 -24.035156 32.210938 -20.261719 32.210938 -15.285156 C 32.210938 -10.035156 31.03125 -6.035156 28.671875 -3.28125 C 26.308594 -0.527344 23.269531 0.847656 19.550781 0.847656 C 17.179688 0.847656 15.210938 0.253906 13.644531 -0.929688 C 12.789062 -1.585938 11.949219 -2.542969 11.128906 -3.800781 L 11.128906 11.730469 L 3.417969 11.730469 L 3.417969 -29.804688 L 10.882812 -29.804688 L 10.882812 -25.402344 C 11.722656 -26.695312 12.613281 -27.71875 13.5625 -28.464844 C 15.292969 -29.796875 17.355469 -30.460938 19.742188 -30.460938 C 23.222656 -30.460938 26.175781 -29.175781 28.601562 -26.605469 Z M 24.171875 -14.902344 C 24.171875 -17.199219 23.648438 -19.230469 22.601562 -21 C 21.550781 -22.769531 19.851562 -23.652344 17.5 -23.652344 C 14.675781 -23.652344 12.734375 -22.3125 11.675781 -19.632812 C 11.128906 -18.210938 10.855469 -16.40625 10.855469 -14.21875 C 10.855469 -10.753906 11.777344 -8.320312 13.617188 -6.917969 C 14.710938 -6.097656 16.003906 -5.6875 17.5 -5.6875 C 19.667969 -5.6875 21.324219 -6.527344 22.460938 -8.203125 C 23.601562 -9.878906 24.171875 -12.113281 24.171875 -14.902344 Z M 24.171875 -14.902344 "/>
    </g>
    <g id="mf-glyph-0-4">
    <path d="M 3.800781 -40.304688 L 11.59375 -40.304688 L 11.59375 0 L 3.800781 0 Z M 3.800781 -40.304688 "/>
    </g>
    <g id="mf-glyph-0-5">
    <path d="M 15.75 -7.820312 L 21.902344 -29.804688 L 30.1875 -29.804688 L 19.960938 -0.492188 C 17.992188 5.160156 16.433594 8.664062 15.285156 10.023438 C 14.136719 11.378906 11.839844 12.058594 8.394531 12.058594 C 7.703125 12.058594 7.144531 12.054688 6.726562 12.046875 C 6.308594 12.035156 5.679688 12.003906 4.839844 11.949219 L 4.839844 5.714844 L 5.824219 5.769531 C 6.589844 5.804688 7.320312 5.777344 8.011719 5.6875 C 8.703125 5.597656 9.289062 5.386719 9.761719 5.058594 C 10.21875 4.75 10.640625 4.101562 11.03125 3.117188 C 11.425781 2.132812 11.585938 1.53125 11.511719 1.3125 L 0.574219 -29.804688 L 9.242188 -29.804688 Z M 15.75 -7.820312 "/>
    </g>
    <g id="mf-glyph-0-6">
    <path d="M 17.609375 -40.550781 L 17.609375 -34.207031 C 17.171875 -34.261719 16.4375 -34.304688 15.40625 -34.328125 C 14.378906 -34.355469 13.667969 -34.128906 13.273438 -33.648438 C 12.882812 -33.164062 12.6875 -32.628906 12.6875 -32.046875 L 12.6875 -29.53125 L 17.800781 -29.53125 L 17.800781 -24.035156 L 12.6875 -24.035156 L 12.6875 0 L 4.921875 0 L 4.921875 -24.035156 L 0.574219 -24.035156 L 0.574219 -29.53125 L 4.839844 -29.53125 L 4.839844 -31.445312 C 4.839844 -34.636719 5.378906 -36.832031 6.453125 -38.035156 C 7.582031 -39.820312 10.308594 -40.714844 14.628906 -40.714844 C 15.121094 -40.714844 15.566406 -40.703125 15.96875 -40.671875 C 16.371094 -40.644531 16.917969 -40.605469 17.609375 -40.550781 Z M 17.609375 -40.550781 "/>
    </g>
    <g id="mf-glyph-0-7">
    <path d="M 22.75 -4.210938 C 22.675781 -4.121094 22.496094 -3.847656 22.203125 -3.390625 C 21.910156 -2.933594 21.566406 -2.535156 21.164062 -2.1875 C 19.941406 -1.09375 18.761719 -0.347656 17.625 0.0546875 C 16.484375 0.457031 15.148438 0.65625 13.617188 0.65625 C 9.207031 0.65625 6.234375 -0.929688 4.703125 -4.101562 C 3.847656 -5.851562 3.417969 -8.429688 3.417969 -11.839844 L 3.417969 -29.804688 L 11.402344 -29.804688 L 11.402344 -11.839844 C 11.402344 -10.144531 11.601562 -8.867188 12.003906 -8.011719 C 12.714844 -6.5 14.109375 -5.742188 16.1875 -5.742188 C 18.847656 -5.742188 20.671875 -6.816406 21.65625 -8.96875 C 22.167969 -10.136719 22.421875 -11.675781 22.421875 -13.589844 L 22.421875 -29.804688 L 30.324219 -29.804688 L 30.324219 0 L 22.75 0 Z M 22.75 -4.210938 "/>
    </g>
    </g>
  </defs>
  <g filter="url(#mf-soft-shadow)">
    <g fill="url(#mf-edge-gradient)" opacity="0.5" transform="translate(1.1 0.9)">
      <g transform="translate(0 -2)">
      <use href="#mf-glyph-0-0" x="10" y="53.121094"/>
      <use href="#mf-glyph-0-1" x="60" y="53.121094"/>
      <use href="#mf-glyph-0-2" x="94" y="53.121094"/>
      <use href="#mf-glyph-0-1" x="128" y="53.121094"/>
      <use href="#mf-glyph-0-3" x="162" y="53.121094"/>
      <use href="#mf-glyph-0-1" x="196" y="53.121094"/>
      <use href="#mf-glyph-0-4" x="230" y="53.121094"/>
      <use href="#mf-glyph-0-5" x="246" y="53.121094"/>
      <use href="#mf-glyph-0-6" x="277" y="53.121094"/>
      <use href="#mf-glyph-0-7" x="296" y="53.121094"/>
      <use href="#mf-glyph-0-2" x="330" y="53.121094"/>
      </g>
    </g>
    <g fill="url(#mf-text-gradient)">
      <g transform="translate(0 -2)">
      <use href="#mf-glyph-0-0" x="10" y="53.121094"/>
      <use href="#mf-glyph-0-1" x="60" y="53.121094"/>
      <use href="#mf-glyph-0-2" x="94" y="53.121094"/>
      <use href="#mf-glyph-0-1" x="128" y="53.121094"/>
      <use href="#mf-glyph-0-3" x="162" y="53.121094"/>
      <use href="#mf-glyph-0-1" x="196" y="53.121094"/>
      <use href="#mf-glyph-0-4" x="230" y="53.121094"/>
      <use href="#mf-glyph-0-5" x="246" y="53.121094"/>
      <use href="#mf-glyph-0-6" x="277" y="53.121094"/>
      <use href="#mf-glyph-0-7" x="296" y="53.121094"/>
      <use href="#mf-glyph-0-2" x="330" y="53.121094"/>
      </g>
    </g>
  </g>
</svg>
